<mxfile host="65bd71144e">
    <diagram id="dNFkojfkoE8Q-ND4W3VJ" name="Page-1">
        <mxGraphModel dx="-1100" dy="1124" grid="1" gridSize="10" guides="1" tooltips="1" connect="1" arrows="1" fold="1" page="1" pageScale="1" pageWidth="850" pageHeight="1100" background="#ffffff" math="0" shadow="0">
            <root>
                <mxCell id="0"/>
                <mxCell id="1" parent="0"/>
                <mxCell id="95" value="C1" style="rounded=0;whiteSpace=wrap;html=1;strokeWidth=2;fillColor=#d5e8d4;strokeColor=#82b366;" parent="1" vertex="1">
                    <mxGeometry x="2790" y="419.3800000000001" width="40" height="40" as="geometry"/>
                </mxCell>
                <mxCell id="96" value="Time bin 0" style="rounded=0;whiteSpace=wrap;html=1;strokeWidth=2;fillColor=#f5f5f5;strokeColor=#666666;fontFamily=Helvetica;fontSize=19;" parent="1" vertex="1">
                    <mxGeometry x="2770" y="260" width="120" height="40" as="geometry"/>
                </mxCell>
                <mxCell id="97" value="Time bin 1" style="rounded=0;whiteSpace=wrap;html=1;strokeWidth=2;fillColor=#f5f5f5;strokeColor=#666666;fontFamily=Helvetica;fontSize=19;" parent="1" vertex="1">
                    <mxGeometry x="2890" y="260" width="120" height="40" as="geometry"/>
                </mxCell>
                <mxCell id="98" style="edgeStyle=orthogonalEdgeStyle;rounded=1;orthogonalLoop=1;jettySize=auto;html=1;strokeWidth=2;" parent="1" edge="1">
                    <mxGeometry relative="1" as="geometry">
                        <mxPoint x="2790" y="400" as="targetPoint"/>
                        <mxPoint x="2789.75" y="460" as="sourcePoint"/>
                        <Array as="points">
                            <mxPoint x="2790" y="430"/>
                        </Array>
                    </mxGeometry>
                </mxCell>
                <mxCell id="99" value="Network schedule" style="text;html=1;strokeColor=none;fillColor=none;align=left;verticalAlign=middle;whiteSpace=wrap;rounded=0;fontSize=20;fontColor=#000000;fontFamily=Helvetica;spacing=0;" parent="1" vertex="1">
                    <mxGeometry x="2620" y="245" width="100" height="60" as="geometry"/>
                </mxCell>
                <mxCell id="100" value="Network process" style="text;html=1;strokeColor=none;fillColor=none;align=left;verticalAlign=middle;whiteSpace=wrap;rounded=0;fontSize=20;fontColor=#000000;fontFamily=Helvetica;spacing=0;" parent="1" vertex="1">
                    <mxGeometry x="2620" y="325" width="100" height="60" as="geometry"/>
                </mxCell>
                <mxCell id="101" value="DQC user process" style="text;html=1;strokeColor=none;fillColor=none;align=left;verticalAlign=middle;whiteSpace=wrap;rounded=0;fontSize=20;fontColor=#000000;fontFamily=Helvetica;spacing=0;" parent="1" vertex="1">
                    <mxGeometry x="2620" y="405" width="100" height="60" as="geometry"/>
                </mxCell>
                <mxCell id="102" style="edgeStyle=orthogonalEdgeStyle;rounded=1;orthogonalLoop=1;jettySize=auto;html=1;strokeWidth=2;endArrow=none;endFill=0;" parent="1" edge="1">
                    <mxGeometry relative="1" as="geometry">
                        <mxPoint x="3630" y="380" as="targetPoint"/>
                        <mxPoint x="2750" y="380" as="sourcePoint"/>
                    </mxGeometry>
                </mxCell>
                <mxCell id="103" style="edgeStyle=orthogonalEdgeStyle;rounded=1;orthogonalLoop=1;jettySize=auto;html=1;strokeWidth=2;endArrow=none;endFill=0;fontFamily=Helvetica;fontSize=19;" parent="1" edge="1">
                    <mxGeometry relative="1" as="geometry">
                        <mxPoint x="3270" y="300" as="targetPoint"/>
                        <mxPoint x="2750" y="300" as="sourcePoint"/>
                    </mxGeometry>
                </mxCell>
                <mxCell id="104" style="edgeStyle=orthogonalEdgeStyle;rounded=1;orthogonalLoop=1;jettySize=auto;html=1;strokeWidth=2;endArrow=none;endFill=0;" parent="1" edge="1">
                    <mxGeometry relative="1" as="geometry">
                        <mxPoint x="3630" y="460" as="targetPoint"/>
                        <mxPoint x="2750" y="460" as="sourcePoint"/>
                    </mxGeometry>
                </mxCell>
                <mxCell id="105" value="Time bin N" style="rounded=0;whiteSpace=wrap;html=1;strokeWidth=2;fillColor=#f5f5f5;strokeColor=#666666;fontFamily=Helvetica;fontSize=19;" parent="1" vertex="1">
                    <mxGeometry x="3130" y="260" width="120" height="40" as="geometry"/>
                </mxCell>
                <mxCell id="106" value="Time bin N+1" style="rounded=0;whiteSpace=wrap;html=1;strokeWidth=2;fillColor=#f5f5f5;strokeColor=#666666;fontFamily=Helvetica;fontSize=19;" parent="1" vertex="1">
                    <mxGeometry x="3250" y="260" width="120" height="40" as="geometry"/>
                </mxCell>
                <mxCell id="107" value="C1" style="rounded=0;whiteSpace=wrap;html=1;strokeWidth=2;fillColor=#d5e8d4;strokeColor=#82b366;" parent="1" vertex="1">
                    <mxGeometry x="3170" y="419.3800000000001" width="40" height="40" as="geometry"/>
                </mxCell>
                <mxCell id="108" value="" style="shape=card;whiteSpace=wrap;html=1;size=100;rotation=-90;fillColor=#dae8fc;strokeColor=#6c8ebf;strokeWidth=2;" parent="1" vertex="1">
                    <mxGeometry x="3105" y="325" width="40" height="70" as="geometry"/>
                </mxCell>
                <mxCell id="109" value="" style="shape=card;whiteSpace=wrap;html=1;size=100;rotation=90;fillColor=#dae8fc;strokeColor=#6c8ebf;strokeWidth=2;" parent="1" vertex="1">
                    <mxGeometry x="2969.38" y="260.63" width="40" height="198.75" as="geometry"/>
                </mxCell>
                <mxCell id="110" value="" style="rounded=0;whiteSpace=wrap;html=1;strokeWidth=2;fillColor=#f5f5f5;strokeColor=#666666;fontFamily=Helvetica;fontSize=19;dashed=1;" parent="1" vertex="1">
                    <mxGeometry x="3010" y="260" width="120" height="40" as="geometry"/>
                </mxCell>
                <mxCell id="111" value="..." style="text;html=1;align=center;verticalAlign=middle;whiteSpace=wrap;rounded=0;fontSize=28;" parent="1" vertex="1">
                    <mxGeometry x="3060" y="340" width="60" height="30" as="geometry"/>
                </mxCell>
                <mxCell id="112" value="L1" style="rounded=0;whiteSpace=wrap;html=1;strokeWidth=2;fillColor=#d5e8d4;strokeColor=#82b366;" parent="1" vertex="1">
                    <mxGeometry x="2840" y="500" width="40" height="40" as="geometry"/>
                </mxCell>
                <mxCell id="113" style="edgeStyle=orthogonalEdgeStyle;rounded=1;orthogonalLoop=1;jettySize=auto;html=1;strokeWidth=2;" parent="1" edge="1">
                    <mxGeometry relative="1" as="geometry">
                        <mxPoint x="2840" y="480" as="targetPoint"/>
                        <mxPoint x="2840" y="540" as="sourcePoint"/>
                    </mxGeometry>
                </mxCell>
                <mxCell id="114" value="LGT user process" style="text;html=1;strokeColor=none;fillColor=none;align=left;verticalAlign=middle;whiteSpace=wrap;rounded=0;fontSize=20;fontColor=#000000;fontFamily=Helvetica;spacing=0;" parent="1" vertex="1">
                    <mxGeometry x="2620" y="485" width="100" height="60" as="geometry"/>
                </mxCell>
                <mxCell id="115" style="edgeStyle=orthogonalEdgeStyle;rounded=1;orthogonalLoop=1;jettySize=auto;html=1;strokeWidth=2;endArrow=none;endFill=0;" parent="1" edge="1">
                    <mxGeometry relative="1" as="geometry">
                        <mxPoint x="3630" y="540" as="targetPoint"/>
                        <mxPoint x="2750" y="540" as="sourcePoint"/>
                    </mxGeometry>
                </mxCell>
                <mxCell id="116" value="L1" style="rounded=0;whiteSpace=wrap;html=1;strokeWidth=2;fillColor=#d5e8d4;strokeColor=#82b366;" parent="1" vertex="1">
                    <mxGeometry x="3210" y="500" width="40" height="40" as="geometry"/>
                </mxCell>
                <mxCell id="117" value="" style="group" parent="1" vertex="1" connectable="0">
                    <mxGeometry x="2830" y="399.3800000000001" width="20" height="20" as="geometry"/>
                </mxCell>
                <mxCell id="118" value="" style="ellipse;whiteSpace=wrap;html=1;aspect=fixed;strokeWidth=2;fillColor=#82B366;fontFamily=Times New Roman;fontSize=20;align=left;strokeColor=none;" parent="117" vertex="1">
                    <mxGeometry width="20" height="20" as="geometry"/>
                </mxCell>
                <mxCell id="119" value="" style="rounded=0;whiteSpace=wrap;html=1;strokeWidth=2;fontFamily=Times New Roman;fontSize=20;align=left;strokeColor=none;fillColor=#FFFFFF;" parent="117" vertex="1">
                    <mxGeometry x="4" y="7.5" width="12" height="5" as="geometry"/>
                </mxCell>
                <mxCell id="120" value="Submit C1" style="text;html=1;align=center;verticalAlign=middle;whiteSpace=wrap;rounded=0;fontSize=17;" parent="1" vertex="1">
                    <mxGeometry x="2707" y="379" width="100" height="30" as="geometry"/>
                </mxCell>
                <mxCell id="121" value="Submit L1" style="text;html=1;align=center;verticalAlign=middle;whiteSpace=wrap;rounded=0;fontSize=17;" parent="1" vertex="1">
                    <mxGeometry x="2740" y="465" width="110" height="30" as="geometry"/>
                </mxCell>
                <mxCell id="122" value="" style="html=1;aspect=fixed;strokeColor=none;shadow=0;align=center;verticalAlign=top;shape=mxgraph.gcp2.check;fontFamily=Times New Roman;fontSize=20;fillColor=#82B366;" parent="1" vertex="1">
                    <mxGeometry x="2870" y="475" width="25" height="20" as="geometry"/>
                </mxCell>
                <mxCell id="123" style="edgeStyle=orthogonalEdgeStyle;rounded=1;orthogonalLoop=1;jettySize=auto;html=1;strokeWidth=2;" parent="1" edge="1">
                    <mxGeometry relative="1" as="geometry">
                        <mxPoint x="2890.25" y="320" as="targetPoint"/>
                        <mxPoint x="2890" y="380" as="sourcePoint"/>
                        <Array as="points">
                            <mxPoint x="2890" y="350"/>
                            <mxPoint x="2890" y="350"/>
                        </Array>
                    </mxGeometry>
                </mxCell>
                <mxCell id="125" value="" style="html=1;aspect=fixed;strokeColor=none;shadow=0;align=center;verticalAlign=top;shape=mxgraph.gcp2.check;fontFamily=Times New Roman;fontSize=20;fillColor=#6C8EBF;" parent="1" vertex="1">
                    <mxGeometry x="3160.32" y="315" width="25" height="20" as="geometry"/>
                </mxCell>
                <mxCell id="126" style="edgeStyle=orthogonalEdgeStyle;rounded=1;orthogonalLoop=1;jettySize=auto;html=1;strokeWidth=2;" parent="1" edge="1">
                    <mxGeometry relative="1" as="geometry">
                        <mxPoint x="3170.25" y="399.3800000000001" as="targetPoint"/>
                        <mxPoint x="3170" y="459.3800000000001" as="sourcePoint"/>
                        <Array as="points">
                            <mxPoint x="3170" y="429"/>
                        </Array>
                    </mxGeometry>
                </mxCell>
                <mxCell id="127" value="Resume C1" style="text;html=1;align=center;verticalAlign=middle;whiteSpace=wrap;rounded=0;fontSize=17;" parent="1" vertex="1">
                    <mxGeometry x="3064.87" y="385" width="110" height="30" as="geometry"/>
                </mxCell>
                <mxCell id="128" value="" style="html=1;aspect=fixed;strokeColor=none;shadow=0;align=center;verticalAlign=top;shape=mxgraph.gcp2.check;fontFamily=Times New Roman;fontSize=20;fillColor=#82B366;" parent="1" vertex="1">
                    <mxGeometry x="3210" y="395" width="25" height="20" as="geometry"/>
                </mxCell>
                <mxCell id="129" style="edgeStyle=orthogonalEdgeStyle;rounded=1;orthogonalLoop=1;jettySize=auto;html=1;strokeWidth=2;" parent="1" edge="1">
                    <mxGeometry relative="1" as="geometry">
                        <mxPoint x="2955" y="480" as="targetPoint"/>
                        <mxPoint x="2955" y="540" as="sourcePoint"/>
                    </mxGeometry>
                </mxCell>
                <mxCell id="130" value="Submit L" style="text;html=1;align=center;verticalAlign=middle;whiteSpace=wrap;rounded=0;fontSize=17;" parent="1" vertex="1">
                    <mxGeometry x="2950" y="465" width="100.62" height="30" as="geometry"/>
                </mxCell>
                <mxCell id="131" value="" style="html=1;aspect=fixed;strokeColor=none;shadow=0;align=center;verticalAlign=top;shape=mxgraph.gcp2.check;fontFamily=Times New Roman;fontSize=20;fillColor=#82B366;" parent="1" vertex="1">
                    <mxGeometry x="3250" y="475" width="25" height="20" as="geometry"/>
                </mxCell>
                <mxCell id="132" value="S1" style="rounded=0;whiteSpace=wrap;html=1;strokeWidth=2;fillColor=#d5e8d4;strokeColor=#82b366;" parent="1" vertex="1">
                    <mxGeometry x="2790" y="178.7500000000001" width="40" height="40" as="geometry"/>
                </mxCell>
                <mxCell id="133" style="edgeStyle=orthogonalEdgeStyle;rounded=1;orthogonalLoop=1;jettySize=auto;html=1;strokeWidth=2;" parent="1" edge="1">
                    <mxGeometry relative="1" as="geometry">
                        <mxPoint x="2790" y="159.37" as="targetPoint"/>
                        <mxPoint x="2789.75" y="219.37" as="sourcePoint"/>
                        <Array as="points">
                            <mxPoint x="2790" y="189"/>
                        </Array>
                    </mxGeometry>
                </mxCell>
                <mxCell id="134" value="Network process" style="text;html=1;strokeColor=none;fillColor=none;align=left;verticalAlign=middle;whiteSpace=wrap;rounded=0;fontSize=20;fontColor=#000000;fontFamily=Helvetica;spacing=0;" parent="1" vertex="1">
                    <mxGeometry x="2620" y="84.37" width="100" height="60" as="geometry"/>
                </mxCell>
                <mxCell id="135" value="DQC user process" style="text;html=1;strokeColor=none;fillColor=none;align=left;verticalAlign=middle;whiteSpace=wrap;rounded=0;fontSize=20;fontColor=#000000;fontFamily=Helvetica;spacing=0;" parent="1" vertex="1">
                    <mxGeometry x="2620" y="164.37" width="100" height="60" as="geometry"/>
                </mxCell>
                <mxCell id="136" style="edgeStyle=orthogonalEdgeStyle;rounded=1;orthogonalLoop=1;jettySize=auto;html=1;strokeWidth=2;endArrow=none;endFill=0;" parent="1" edge="1">
                    <mxGeometry relative="1" as="geometry">
                        <mxPoint x="3630" y="139" as="targetPoint"/>
                        <mxPoint x="2750" y="139.37" as="sourcePoint"/>
                        <Array as="points">
                            <mxPoint x="3190" y="139"/>
                            <mxPoint x="3630" y="140"/>
                        </Array>
                    </mxGeometry>
                </mxCell>
                <mxCell id="137" style="edgeStyle=orthogonalEdgeStyle;rounded=1;orthogonalLoop=1;jettySize=auto;html=1;strokeWidth=2;endArrow=none;endFill=0;" parent="1" edge="1">
                    <mxGeometry relative="1" as="geometry">
                        <mxPoint x="3630" y="219" as="targetPoint"/>
                        <mxPoint x="2750" y="219.37" as="sourcePoint"/>
                        <Array as="points">
                            <mxPoint x="3190" y="219"/>
                            <mxPoint x="3630" y="219"/>
                        </Array>
                    </mxGeometry>
                </mxCell>
                <mxCell id="138" value="S1" style="rounded=0;whiteSpace=wrap;html=1;strokeWidth=2;fillColor=#d5e8d4;strokeColor=#82b366;" parent="1" vertex="1">
                    <mxGeometry x="3169.71" y="179.07000000000016" width="40" height="40" as="geometry"/>
                </mxCell>
                <mxCell id="139" value="" style="shape=card;whiteSpace=wrap;html=1;size=100;rotation=-90;fillColor=#dae8fc;strokeColor=#6c8ebf;strokeWidth=2;" parent="1" vertex="1">
                    <mxGeometry x="3105.32" y="84.05999999999995" width="40" height="70.63" as="geometry"/>
                </mxCell>
                <mxCell id="140" value="" style="shape=card;whiteSpace=wrap;html=1;size=100;rotation=90;fillColor=#dae8fc;strokeColor=#6c8ebf;strokeWidth=2;" parent="1" vertex="1">
                    <mxGeometry x="2969.38" y="20" width="40" height="198.75" as="geometry"/>
                </mxCell>
                <mxCell id="141" value="..." style="text;html=1;align=center;verticalAlign=middle;whiteSpace=wrap;rounded=0;fontSize=28;" parent="1" vertex="1">
                    <mxGeometry x="3060" y="99.37" width="60" height="30" as="geometry"/>
                </mxCell>
                <mxCell id="142" value="" style="group" parent="1" vertex="1" connectable="0">
                    <mxGeometry x="2830" y="158.7500000000001" width="20" height="20" as="geometry"/>
                </mxCell>
                <mxCell id="143" value="" style="ellipse;whiteSpace=wrap;html=1;aspect=fixed;strokeWidth=2;fillColor=#82B366;fontFamily=Times New Roman;fontSize=20;align=left;strokeColor=none;" parent="142" vertex="1">
                    <mxGeometry width="20" height="20" as="geometry"/>
                </mxCell>
                <mxCell id="144" value="" style="rounded=0;whiteSpace=wrap;html=1;strokeWidth=2;fontFamily=Times New Roman;fontSize=20;align=left;strokeColor=none;fillColor=#FFFFFF;" parent="142" vertex="1">
                    <mxGeometry x="4" y="7.5" width="12" height="5" as="geometry"/>
                </mxCell>
                <mxCell id="145" value="Submit S1" style="text;html=1;align=center;verticalAlign=middle;whiteSpace=wrap;rounded=0;fontSize=17;" parent="1" vertex="1">
                    <mxGeometry x="2710" y="139.37" width="100" height="30" as="geometry"/>
                </mxCell>
                <mxCell id="146" style="edgeStyle=orthogonalEdgeStyle;rounded=1;orthogonalLoop=1;jettySize=auto;html=1;strokeWidth=2;" parent="1" edge="1">
                    <mxGeometry relative="1" as="geometry">
                        <mxPoint x="2890.25" y="79.37" as="targetPoint"/>
                        <mxPoint x="2890" y="139.37" as="sourcePoint"/>
                        <Array as="points">
                            <mxPoint x="2890" y="109"/>
                        </Array>
                    </mxGeometry>
                </mxCell>
                <mxCell id="147" value="Time bin start" style="text;html=1;align=center;verticalAlign=middle;whiteSpace=wrap;rounded=0;fontSize=17;" parent="1" vertex="1">
                    <mxGeometry x="2805" y="64.37" width="90" height="25.63" as="geometry"/>
                </mxCell>
                <mxCell id="148" value="" style="html=1;aspect=fixed;strokeColor=none;shadow=0;align=center;verticalAlign=top;shape=mxgraph.gcp2.check;fontFamily=Times New Roman;fontSize=20;fillColor=#6C8EBF;" parent="1" vertex="1">
                    <mxGeometry x="3160.32" y="74.37" width="25" height="20" as="geometry"/>
                </mxCell>
                <mxCell id="149" style="edgeStyle=orthogonalEdgeStyle;rounded=1;orthogonalLoop=1;jettySize=auto;html=1;strokeWidth=2;" parent="1" edge="1">
                    <mxGeometry relative="1" as="geometry">
                        <mxPoint x="3169.96" y="159.07000000000016" as="targetPoint"/>
                        <mxPoint x="3169.71" y="219.07000000000016" as="sourcePoint"/>
                        <Array as="points">
                            <mxPoint x="3170" y="189"/>
                        </Array>
                    </mxGeometry>
                </mxCell>
                <mxCell id="150" value="Resume S1" style="text;html=1;align=center;verticalAlign=middle;whiteSpace=wrap;rounded=0;fontSize=17;" parent="1" vertex="1">
                    <mxGeometry x="3070.03" y="144.37" width="99.68" height="30" as="geometry"/>
                </mxCell>
                <mxCell id="151" value="" style="html=1;aspect=fixed;strokeColor=none;shadow=0;align=center;verticalAlign=top;shape=mxgraph.gcp2.check;fontFamily=Times New Roman;fontSize=20;fillColor=#82B366;" parent="1" vertex="1">
                    <mxGeometry x="3202.82" y="154.37" width="25" height="20" as="geometry"/>
                </mxCell>
                <mxCell id="152" value="Submit S2" style="text;html=1;align=center;verticalAlign=middle;whiteSpace=wrap;rounded=0;fontSize=17;" parent="1" vertex="1">
                    <mxGeometry x="3215.1600000000003" y="139.37" width="94.68" height="30" as="geometry"/>
                </mxCell>
                <mxCell id="153" value="S2" style="rounded=0;whiteSpace=wrap;html=1;strokeWidth=2;fillColor=#d5e8d4;strokeColor=#82b366;" parent="1" vertex="1">
                    <mxGeometry x="3240.03" y="179.07000000000016" width="40" height="40" as="geometry"/>
                </mxCell>
                <mxCell id="154" style="edgeStyle=orthogonalEdgeStyle;rounded=1;orthogonalLoop=1;jettySize=auto;html=1;strokeWidth=2;" parent="1" edge="1">
                    <mxGeometry relative="1" as="geometry">
                        <mxPoint x="3240.03" y="160.32000000000005" as="targetPoint"/>
                        <mxPoint x="3239.78" y="220.32000000000005" as="sourcePoint"/>
                        <Array as="points">
                            <mxPoint x="3240" y="190"/>
                        </Array>
                    </mxGeometry>
                </mxCell>
                <mxCell id="156" value="Submit S1" style="text;html=1;align=center;verticalAlign=middle;whiteSpace=wrap;rounded=0;fontSize=17;" parent="1" vertex="1">
                    <mxGeometry x="3315" y="139.37" width="85" height="30" as="geometry"/>
                </mxCell>
                <mxCell id="157" value="Time bin N+2" style="rounded=0;whiteSpace=wrap;html=1;strokeWidth=2;fillColor=#f5f5f5;strokeColor=#666666;fontFamily=Helvetica;fontSize=19;" parent="1" vertex="1">
                    <mxGeometry x="3370" y="260" width="120" height="40" as="geometry"/>
                </mxCell>
                <mxCell id="158" value="C1" style="rounded=0;whiteSpace=wrap;html=1;strokeWidth=2;fillColor=#d5e8d4;strokeColor=#82b366;" parent="1" vertex="1">
                    <mxGeometry x="3262.5" y="418.7600000000002" width="40" height="40" as="geometry"/>
                </mxCell>
                <mxCell id="159" style="edgeStyle=orthogonalEdgeStyle;rounded=1;orthogonalLoop=1;jettySize=auto;html=1;strokeWidth=2;" parent="1" edge="1">
                    <mxGeometry relative="1" as="geometry">
                        <mxPoint x="3262.5" y="399.3800000000001" as="targetPoint"/>
                        <mxPoint x="3262.25" y="459.3800000000001" as="sourcePoint"/>
                        <Array as="points">
                            <mxPoint x="3262" y="429"/>
                            <mxPoint x="3263" y="429"/>
                        </Array>
                    </mxGeometry>
                </mxCell>
                <mxCell id="160" value="" style="group" parent="1" vertex="1" connectable="0">
                    <mxGeometry x="3302.5" y="398.7600000000002" width="20" height="20" as="geometry"/>
                </mxCell>
                <mxCell id="161" value="" style="ellipse;whiteSpace=wrap;html=1;aspect=fixed;strokeWidth=2;fillColor=#82B366;fontFamily=Times New Roman;fontSize=20;align=left;strokeColor=none;" parent="160" vertex="1">
                    <mxGeometry width="20" height="20" as="geometry"/>
                </mxCell>
                <mxCell id="162" value="" style="rounded=0;whiteSpace=wrap;html=1;strokeWidth=2;fontFamily=Times New Roman;fontSize=20;align=left;strokeColor=none;fillColor=#FFFFFF;" parent="160" vertex="1">
                    <mxGeometry x="4" y="7.5" width="12" height="5" as="geometry"/>
                </mxCell>
                <mxCell id="163" value="Submit C1" style="text;html=1;align=center;verticalAlign=middle;whiteSpace=wrap;rounded=0;fontSize=17;" parent="1" vertex="1">
                    <mxGeometry x="3241.25" y="375" width="97.5" height="30" as="geometry"/>
                </mxCell>
                <mxCell id="164" value="L1" style="rounded=0;whiteSpace=wrap;html=1;strokeWidth=2;fillColor=#d5e8d4;strokeColor=#82b366;" parent="1" vertex="1">
                    <mxGeometry x="3315" y="500" width="40" height="40" as="geometry"/>
                </mxCell>
                <mxCell id="165" style="edgeStyle=orthogonalEdgeStyle;rounded=1;orthogonalLoop=1;jettySize=auto;html=1;strokeWidth=2;" parent="1" edge="1">
                    <mxGeometry relative="1" as="geometry">
                        <mxPoint x="3315" y="480" as="targetPoint"/>
                        <mxPoint x="3315" y="540" as="sourcePoint"/>
                    </mxGeometry>
                </mxCell>
                <mxCell id="166" value="Submit L1" style="text;html=1;align=center;verticalAlign=middle;whiteSpace=wrap;rounded=0;fontSize=17;" parent="1" vertex="1">
                    <mxGeometry x="3266" y="458" width="95" height="30" as="geometry"/>
                </mxCell>
                <mxCell id="167" value="" style="html=1;aspect=fixed;strokeColor=none;shadow=0;align=center;verticalAlign=top;shape=mxgraph.gcp2.check;fontFamily=Times New Roman;fontSize=20;fillColor=#82B366;" parent="1" vertex="1">
                    <mxGeometry x="3345" y="475" width="25" height="20" as="geometry"/>
                </mxCell>
                <mxCell id="168" value="" style="shape=card;whiteSpace=wrap;html=1;size=100;rotation=90;fillColor=#dae8fc;strokeColor=#6c8ebf;strokeWidth=2;" parent="1" vertex="1">
                    <mxGeometry x="3440" y="270" width="40" height="178.75" as="geometry"/>
                </mxCell>
                <mxCell id="169" style="edgeStyle=orthogonalEdgeStyle;rounded=1;orthogonalLoop=1;jettySize=auto;html=1;strokeWidth=2;" parent="1" edge="1">
                    <mxGeometry relative="1" as="geometry">
                        <mxPoint x="3369.96" y="320" as="targetPoint"/>
                        <mxPoint x="3369.71" y="380" as="sourcePoint"/>
                        <Array as="points">
                            <mxPoint x="3370" y="350"/>
                        </Array>
                    </mxGeometry>
                </mxCell>
                <mxCell id="171" style="edgeStyle=orthogonalEdgeStyle;rounded=1;orthogonalLoop=1;jettySize=auto;html=1;strokeWidth=2;" parent="1" edge="1">
                    <mxGeometry relative="1" as="geometry">
                        <mxPoint x="3369.42" y="79.37" as="targetPoint"/>
                        <mxPoint x="3369.17" y="139.37" as="sourcePoint"/>
                        <Array as="points">
                            <mxPoint x="3369" y="109"/>
                        </Array>
                    </mxGeometry>
                </mxCell>
                <mxCell id="173" value="" style="shape=card;whiteSpace=wrap;html=1;size=100;rotation=90;fillColor=#dae8fc;strokeColor=#6c8ebf;strokeWidth=2;" parent="1" vertex="1">
                    <mxGeometry x="3440" y="30" width="40" height="178.75" as="geometry"/>
                </mxCell>
                <mxCell id="174" value="..." style="text;html=1;align=center;verticalAlign=middle;whiteSpace=wrap;rounded=0;fontSize=28;" parent="1" vertex="1">
                    <mxGeometry x="3520" y="94.37" width="60" height="30" as="geometry"/>
                </mxCell>
                <mxCell id="175" value="..." style="text;html=1;align=center;verticalAlign=middle;whiteSpace=wrap;rounded=0;fontSize=28;" parent="1" vertex="1">
                    <mxGeometry x="3520" y="335" width="60" height="30" as="geometry"/>
                </mxCell>
                <mxCell id="176" style="edgeStyle=orthogonalEdgeStyle;rounded=1;orthogonalLoop=1;jettySize=auto;html=1;strokeWidth=2;" parent="1" edge="1">
                    <mxGeometry relative="1" as="geometry">
                        <mxPoint x="3489.17" y="480" as="targetPoint"/>
                        <mxPoint x="3489.17" y="540" as="sourcePoint"/>
                    </mxGeometry>
                </mxCell>
                <mxCell id="177" value="Submit L1" style="text;html=1;align=center;verticalAlign=middle;whiteSpace=wrap;rounded=0;fontSize=17;" parent="1" vertex="1">
                    <mxGeometry x="3410" y="459.38" width="90.83" height="30" as="geometry"/>
                </mxCell>
                <mxCell id="178" value="" style="rounded=0;whiteSpace=wrap;html=1;strokeWidth=2;fillColor=#f5f5f5;strokeColor=#666666;fontFamily=Helvetica;fontSize=19;dashed=1;" parent="1" vertex="1">
                    <mxGeometry x="3490" y="260" width="120" height="40" as="geometry"/>
                </mxCell>
                <mxCell id="179" value="..." style="text;html=1;align=center;verticalAlign=middle;whiteSpace=wrap;rounded=0;fontSize=19;fontFamily=Helvetica;" parent="1" vertex="1">
                    <mxGeometry x="3040" y="260" width="60" height="30" as="geometry"/>
                </mxCell>
                <mxCell id="180" value="..." style="text;html=1;align=center;verticalAlign=middle;whiteSpace=wrap;rounded=0;fontSize=19;fontFamily=Helvetica;" parent="1" vertex="1">
                    <mxGeometry x="3520" y="260" width="60" height="30" as="geometry"/>
                </mxCell>
                <mxCell id="181" value="Server QNPU" style="shape=curlyBracket;whiteSpace=wrap;html=1;rounded=1;labelPosition=left;verticalLabelPosition=middle;align=center;verticalAlign=middle;horizontal=0;fontSize=18;" parent="1" vertex="1">
                    <mxGeometry x="2580" y="84.37" width="20" height="140.63" as="geometry"/>
                </mxCell>
                <mxCell id="182" value="Client QNPU" style="shape=curlyBracket;whiteSpace=wrap;html=1;rounded=1;labelPosition=left;verticalLabelPosition=middle;align=center;verticalAlign=middle;horizontal=0;fontSize=18;" parent="1" vertex="1">
                    <mxGeometry x="2580" y="327.19000000000005" width="20" height="222.81" as="geometry"/>
                </mxCell>
                <mxCell id="183" value="S1" style="rounded=0;whiteSpace=wrap;html=1;strokeWidth=2;fillColor=#d5e8d4;strokeColor=#82b366;" parent="1" vertex="1">
                    <mxGeometry x="3315" y="178.75000000000023" width="40" height="40" as="geometry"/>
                </mxCell>
                <mxCell id="184" value="" style="group" parent="1" vertex="1" connectable="0">
                    <mxGeometry x="3350" y="160.00000000000023" width="20" height="20" as="geometry"/>
                </mxCell>
                <mxCell id="185" value="" style="ellipse;whiteSpace=wrap;html=1;aspect=fixed;strokeWidth=2;fillColor=#82B366;fontFamily=Times New Roman;fontSize=20;align=left;strokeColor=none;" parent="184" vertex="1">
                    <mxGeometry width="20" height="20" as="geometry"/>
                </mxCell>
                <mxCell id="186" value="" style="rounded=0;whiteSpace=wrap;html=1;strokeWidth=2;fontFamily=Times New Roman;fontSize=20;align=left;strokeColor=none;fillColor=#FFFFFF;" parent="184" vertex="1">
                    <mxGeometry x="4" y="7.5" width="12" height="5" as="geometry"/>
                </mxCell>
                <mxCell id="187" value="" style="html=1;aspect=fixed;strokeColor=none;shadow=0;align=center;verticalAlign=top;shape=mxgraph.gcp2.check;fontFamily=Times New Roman;fontSize=20;fillColor=#82B366;" parent="1" vertex="1">
                    <mxGeometry x="3277.5" y="158.75" width="25" height="20" as="geometry"/>
                </mxCell>
                <mxCell id="188" value="Time bin start" style="text;html=1;align=center;verticalAlign=middle;whiteSpace=wrap;rounded=0;fontSize=17;" parent="1" vertex="1">
                    <mxGeometry x="3290" y="58.43000000000001" width="90" height="25.63" as="geometry"/>
                </mxCell>
                <mxCell id="189" value="Time bin start" style="text;html=1;align=center;verticalAlign=middle;whiteSpace=wrap;rounded=0;fontSize=17;" parent="1" vertex="1">
                    <mxGeometry x="2815" y="314.37" width="90" height="25.63" as="geometry"/>
                </mxCell>
                <mxCell id="190" value="Time bin start" style="text;html=1;align=center;verticalAlign=middle;whiteSpace=wrap;rounded=0;fontSize=17;" parent="1" vertex="1">
                    <mxGeometry x="3290" y="309.37" width="90" height="25.63" as="geometry"/>
                </mxCell>
                <mxCell id="155" style="edgeStyle=orthogonalEdgeStyle;rounded=1;orthogonalLoop=1;jettySize=auto;html=1;strokeWidth=2;" parent="1" edge="1">
                    <mxGeometry relative="1" as="geometry">
                        <mxPoint x="3315.25" y="159.07000000000005" as="targetPoint"/>
                        <mxPoint x="3315" y="219.07000000000005" as="sourcePoint"/>
                        <Array as="points">
                            <mxPoint x="3315" y="189"/>
                        </Array>
                    </mxGeometry>
                </mxCell>
            </root>
        </mxGraphModel>
    </diagram>
</mxfile>